<mxfile modified="2023-01-31T01:41:17.508Z" host="app.diagrams.net" agent="5.0 (Windows NT 10.0; Win64; x64) AppleWebKit/537.36 (KHTML, like Gecko) Chrome/109.0.0.0 Safari/537.36" etag="7OgWJnxbyfbREpEA5eQz" version="20.8.13" type="github">
  <diagram id="Ht1M8jgEwFfnCIfOTk4-" name="FullCycle">
    <mxGraphModel dx="1220" dy="656" grid="1" gridSize="10" guides="1" tooltips="1" connect="1" arrows="1" fold="1" page="1" pageScale="1" pageWidth="1000" pageHeight="250" math="0" shadow="0">
      <root>
        <mxCell id="0" />
        <mxCell id="1" parent="0" />
        <mxCell id="GiZt8iYAm0HKHui74ixi-77" style="edgeStyle=orthogonalEdgeStyle;rounded=1;jumpSize=6;orthogonalLoop=1;jettySize=auto;html=1;entryX=0.5;entryY=-0.086;entryDx=0;entryDy=0;entryPerimeter=0;strokeColor=default;strokeWidth=0.5;fontSize=6;fontColor=#E8E8E8;startSize=3;endSize=3;opacity=80;" edge="1" parent="1" source="GiZt8iYAm0HKHui74ixi-1" target="GiZt8iYAm0HKHui74ixi-2">
          <mxGeometry relative="1" as="geometry" />
        </mxCell>
        <mxCell id="GiZt8iYAm0HKHui74ixi-1" value="Ambiente de Desenvolvimento com Docker" style="sketch=0;aspect=fixed;points=[];align=left;image;fontSize=5;image=img/lib/mscae/Docker.svg;labelPosition=right;verticalLabelPosition=top;verticalAlign=bottom;html=1;" vertex="1" parent="1">
          <mxGeometry x="30" y="50" width="36.59" height="30" as="geometry" />
        </mxCell>
        <mxCell id="GiZt8iYAm0HKHui74ixi-78" style="edgeStyle=orthogonalEdgeStyle;rounded=1;jumpSize=6;orthogonalLoop=1;jettySize=auto;html=1;entryX=-0.037;entryY=0.529;entryDx=0;entryDy=0;entryPerimeter=0;strokeColor=default;strokeWidth=0.5;fontSize=6;fontColor=#E8E8E8;startSize=3;endSize=3;opacity=80;" edge="1" parent="1" source="GiZt8iYAm0HKHui74ixi-2" target="GiZt8iYAm0HKHui74ixi-8">
          <mxGeometry relative="1" as="geometry" />
        </mxCell>
        <mxCell id="GiZt8iYAm0HKHui74ixi-2" value="" style="verticalLabelPosition=bottom;html=1;verticalAlign=top;align=center;strokeColor=none;fillColor=#00BEF2;shape=mxgraph.azure.git_repository;aspect=fixed;" vertex="1" parent="1">
          <mxGeometry x="36.41999999999999" y="148.5" width="23.75" height="23.75" as="geometry" />
        </mxCell>
        <mxCell id="GiZt8iYAm0HKHui74ixi-3" value="" style="shape=image;html=1;verticalAlign=top;verticalLabelPosition=bottom;labelBackgroundColor=#FFFFFF;imageAspect=0;aspect=fixed;image=https://cdn0.iconfinder.com/data/icons/phosphor-bold-vol-3-1/256/git-pull-request-duotone-128.png;imageBackground=none;imageBorder=none;perimeterSpacing=1;fontColor=#FCFCFC;labelBorderColor=none;" vertex="1" parent="1">
          <mxGeometry x="109.66999999999999" y="65" width="19.94" height="19.94" as="geometry" />
        </mxCell>
        <mxCell id="GiZt8iYAm0HKHui74ixi-4" value="" style="shape=image;html=1;verticalAlign=top;verticalLabelPosition=bottom;labelBackgroundColor=#ffffff;imageAspect=0;aspect=fixed;image=https://cdn0.iconfinder.com/data/icons/phosphor-regular-vol-3/256/git-branch-128.png" vertex="1" parent="1">
          <mxGeometry x="146.92" y="65" width="20" height="20" as="geometry" />
        </mxCell>
        <mxCell id="GiZt8iYAm0HKHui74ixi-5" value="" style="rounded=1;whiteSpace=wrap;html=1;fillColor=none;" vertex="1" parent="1">
          <mxGeometry x="103.28999999999999" y="95" width="70" height="60" as="geometry" />
        </mxCell>
        <mxCell id="GiZt8iYAm0HKHui74ixi-79" style="edgeStyle=orthogonalEdgeStyle;rounded=1;jumpSize=6;orthogonalLoop=1;jettySize=auto;html=1;exitX=1;exitY=0.5;exitDx=0;exitDy=0;entryX=0;entryY=0.5;entryDx=0;entryDy=0;strokeColor=default;strokeWidth=0.5;fontSize=6;fontColor=#E8E8E8;startSize=3;endSize=3;opacity=80;" edge="1" parent="1" source="GiZt8iYAm0HKHui74ixi-8" target="GiZt8iYAm0HKHui74ixi-19">
          <mxGeometry relative="1" as="geometry" />
        </mxCell>
        <mxCell id="GiZt8iYAm0HKHui74ixi-8" value="&lt;p style=&quot;line-height: 100%;&quot;&gt;Pull requests / Merge&lt;/p&gt;" style="rounded=1;whiteSpace=wrap;html=1;labelBackgroundColor=none;labelBorderColor=none;fontSize=5;fontColor=#FCFCFC;fillColor=none;glass=0;shadow=0;strokeColor=default;strokeWidth=0.5;" vertex="1" parent="1">
          <mxGeometry x="109.66999999999999" y="155" width="57.25" height="10" as="geometry" />
        </mxCell>
        <mxCell id="GiZt8iYAm0HKHui74ixi-11" value="Pull Request" style="text;html=1;strokeColor=none;fillColor=none;align=center;verticalAlign=middle;whiteSpace=wrap;rounded=0;fontSize=4;fontColor=#FCFCFC;" vertex="1" parent="1">
          <mxGeometry x="103.28999999999999" y="131.25" width="31.12" height="7.5" as="geometry" />
        </mxCell>
        <mxCell id="GiZt8iYAm0HKHui74ixi-14" value="&lt;font style=&quot;font-size: 10px;&quot;&gt;1&lt;/font&gt;" style="ellipse;whiteSpace=wrap;html=1;aspect=fixed;strokeWidth=1;fontFamily=Tahoma;spacingBottom=0;spacingRight=1;strokeColor=#d3d3d3;rounded=1;shadow=0;glass=0;labelBackgroundColor=none;labelBorderColor=none;fontSize=10;fontColor=default;fillColor=none;verticalAlign=bottom;align=center;spacing=4;" vertex="1" parent="1">
          <mxGeometry x="108.85" y="111.25" width="20" height="20" as="geometry" />
        </mxCell>
        <mxCell id="GiZt8iYAm0HKHui74ixi-15" value="Merge" style="text;html=1;strokeColor=none;fillColor=none;align=center;verticalAlign=middle;whiteSpace=wrap;rounded=0;fontSize=4;fontColor=#FCFCFC;" vertex="1" parent="1">
          <mxGeometry x="142.17" y="131.25" width="31.12" height="7.5" as="geometry" />
        </mxCell>
        <mxCell id="GiZt8iYAm0HKHui74ixi-16" value="&lt;font style=&quot;font-size: 10px;&quot;&gt;2&lt;/font&gt;" style="ellipse;whiteSpace=wrap;html=1;aspect=fixed;strokeWidth=1;fontFamily=Tahoma;spacingBottom=0;spacingRight=-1;strokeColor=#d3d3d3;rounded=1;shadow=0;glass=0;labelBackgroundColor=none;labelBorderColor=none;fontSize=10;fontColor=default;fillColor=none;verticalAlign=bottom;align=center;spacing=4;" vertex="1" parent="1">
          <mxGeometry x="147.73" y="111.25" width="20" height="20" as="geometry" />
        </mxCell>
        <mxCell id="GiZt8iYAm0HKHui74ixi-46" style="edgeStyle=orthogonalEdgeStyle;rounded=1;jumpSize=6;orthogonalLoop=1;jettySize=auto;html=1;entryX=0.5;entryY=0;entryDx=0;entryDy=0;strokeColor=default;strokeWidth=0.5;fontSize=4;fontColor=default;startSize=3;endSize=3;opacity=80;exitX=0.5;exitY=0;exitDx=0;exitDy=0;" edge="1" parent="1" source="GiZt8iYAm0HKHui74ixi-18" target="GiZt8iYAm0HKHui74ixi-27">
          <mxGeometry relative="1" as="geometry">
            <Array as="points">
              <mxPoint x="283.28999999999996" y="65" />
              <mxPoint x="463.28999999999996" y="65" />
            </Array>
          </mxGeometry>
        </mxCell>
        <mxCell id="GiZt8iYAm0HKHui74ixi-49" value="Jenkins + Kubernetes Engine + Code Deploy" style="edgeLabel;html=1;align=center;verticalAlign=middle;resizable=0;points=[];fontSize=4;fontColor=default;" vertex="1" connectable="0" parent="GiZt8iYAm0HKHui74ixi-46">
          <mxGeometry x="0.0419" y="1" relative="1" as="geometry">
            <mxPoint x="-5" y="1" as="offset" />
          </mxGeometry>
        </mxCell>
        <mxCell id="GiZt8iYAm0HKHui74ixi-18" value="" style="rounded=1;whiteSpace=wrap;html=1;fillColor=none;" vertex="1" parent="1">
          <mxGeometry x="213.29" y="95" width="140" height="60" as="geometry" />
        </mxCell>
        <mxCell id="GiZt8iYAm0HKHui74ixi-81" style="edgeStyle=orthogonalEdgeStyle;rounded=1;jumpSize=6;orthogonalLoop=1;jettySize=auto;html=1;entryX=-0.012;entryY=0.59;entryDx=0;entryDy=0;entryPerimeter=0;strokeColor=default;strokeWidth=0.5;fontSize=6;fontColor=#E8E8E8;startSize=3;endSize=3;opacity=80;exitX=0.5;exitY=1;exitDx=0;exitDy=0;" edge="1" parent="1" source="GiZt8iYAm0HKHui74ixi-19" target="GiZt8iYAm0HKHui74ixi-80">
          <mxGeometry relative="1" as="geometry" />
        </mxCell>
        <mxCell id="GiZt8iYAm0HKHui74ixi-19" value="&lt;p style=&quot;line-height: 100%;&quot;&gt;CI - Pipeline&lt;/p&gt;" style="rounded=1;whiteSpace=wrap;html=1;labelBackgroundColor=none;labelBorderColor=none;fontSize=5;fontColor=#FCFCFC;fillColor=none;glass=0;shadow=0;strokeColor=default;strokeWidth=0.5;" vertex="1" parent="1">
          <mxGeometry x="254.66" y="155" width="57.25" height="10" as="geometry" />
        </mxCell>
        <mxCell id="GiZt8iYAm0HKHui74ixi-20" value="Tests" style="shape=image;html=1;verticalAlign=top;verticalLabelPosition=bottom;labelBackgroundColor=none;imageAspect=0;aspect=fixed;image=https://cdn0.iconfinder.com/data/icons/job-seeker/256/test_job_seeker_employee_unemployee_work-128.png;rounded=1;shadow=0;glass=0;labelBorderColor=none;sketch=0;strokeColor=default;strokeWidth=1;fontSize=4;fontColor=default;fillColor=none;" vertex="1" parent="1">
          <mxGeometry x="223.29" y="116" width="18" height="18" as="geometry" />
        </mxCell>
        <mxCell id="GiZt8iYAm0HKHui74ixi-21" value="Qualidade" style="shape=image;html=1;verticalAlign=top;verticalLabelPosition=bottom;labelBackgroundColor=none;imageAspect=0;aspect=fixed;image=https://cdn2.iconfinder.com/data/icons/seo-flat-6/128/23_Page_Rank_Badge-128.png;rounded=1;shadow=0;glass=0;labelBorderColor=none;sketch=0;strokeColor=default;strokeWidth=1;fontSize=4;fontColor=default;fillColor=none;" vertex="1" parent="1">
          <mxGeometry x="273.78999999999996" y="115" width="19" height="19" as="geometry" />
        </mxCell>
        <mxCell id="GiZt8iYAm0HKHui74ixi-22" value="Packaging" style="verticalLabelPosition=bottom;html=1;verticalAlign=top;align=center;strokeColor=none;fillColor=#00BEF2;shape=mxgraph.azure.cloud_service_package_file;rounded=1;shadow=0;glass=0;labelBackgroundColor=none;labelBorderColor=none;sketch=0;strokeWidth=1;fontSize=4;fontColor=default;aspect=fixed;" vertex="1" parent="1">
          <mxGeometry x="323.28999999999996" y="116" width="12.5" height="14.71" as="geometry" />
        </mxCell>
        <mxCell id="GiZt8iYAm0HKHui74ixi-27" value="" style="rounded=1;whiteSpace=wrap;html=1;fillColor=none;" vertex="1" parent="1">
          <mxGeometry x="393.28999999999996" y="95" width="140" height="60" as="geometry" />
        </mxCell>
        <mxCell id="GiZt8iYAm0HKHui74ixi-83" style="edgeStyle=orthogonalEdgeStyle;rounded=1;jumpSize=6;orthogonalLoop=1;jettySize=auto;html=1;exitX=0.5;exitY=1;exitDx=0;exitDy=0;entryX=0.5;entryY=1;entryDx=0;entryDy=0;strokeColor=default;strokeWidth=0.5;fontSize=6;fontColor=#E8E8E8;startSize=3;endSize=3;opacity=80;spacing=2;sourcePerimeterSpacing=0;jumpStyle=none;" edge="1" parent="1" source="GiZt8iYAm0HKHui74ixi-28" target="GiZt8iYAm0HKHui74ixi-67">
          <mxGeometry relative="1" as="geometry">
            <Array as="points">
              <mxPoint x="463" y="200" />
              <mxPoint x="719" y="200" />
            </Array>
          </mxGeometry>
        </mxCell>
        <mxCell id="GiZt8iYAm0HKHui74ixi-28" value="&lt;p style=&quot;line-height: 100%;&quot;&gt;CD - Pipeline&lt;/p&gt;" style="rounded=1;whiteSpace=wrap;html=1;labelBackgroundColor=none;labelBorderColor=none;fontSize=5;fontColor=#FCFCFC;fillColor=none;glass=0;shadow=0;strokeColor=default;strokeWidth=0.5;" vertex="1" parent="1">
          <mxGeometry x="434.65999999999997" y="155" width="57.25" height="10" as="geometry" />
        </mxCell>
        <mxCell id="GiZt8iYAm0HKHui74ixi-29" value="Tests Manuais" style="shape=image;html=1;verticalAlign=top;verticalLabelPosition=bottom;labelBackgroundColor=none;imageAspect=0;aspect=fixed;image=https://cdn0.iconfinder.com/data/icons/job-seeker/256/test_job_seeker_employee_unemployee_work-128.png;rounded=1;shadow=0;glass=0;labelBorderColor=none;sketch=0;strokeColor=default;strokeWidth=1;fontSize=4;fontColor=default;fillColor=none;" vertex="1" parent="1">
          <mxGeometry x="403.28999999999996" y="116" width="18" height="18" as="geometry" />
        </mxCell>
        <mxCell id="GiZt8iYAm0HKHui74ixi-32" value="Aprovação" style="shape=image;html=1;verticalAlign=top;verticalLabelPosition=bottom;labelBackgroundColor=none;imageAspect=0;aspect=fixed;image=https://cdn0.iconfinder.com/data/icons/winter-lollipop/128/Like.png;rounded=1;shadow=0;glass=0;labelBorderColor=none;sketch=0;strokeColor=default;strokeWidth=1;fontSize=4;fontColor=default;fillColor=none;" vertex="1" parent="1">
          <mxGeometry x="454.28999999999996" y="115.5" width="18" height="18" as="geometry" />
        </mxCell>
        <mxCell id="GiZt8iYAm0HKHui74ixi-41" style="orthogonalLoop=1;jettySize=auto;html=1;exitX=1;exitY=0.5;exitDx=0;exitDy=0;entryX=-0.129;entryY=0.582;entryDx=0;entryDy=0;entryPerimeter=0;fontSize=4;fontColor=default;rounded=1;strokeColor=default;strokeWidth=0.5;endSize=3;startSize=3;jumpSize=6;spacing=2;opacity=80;" edge="1" parent="1" source="GiZt8iYAm0HKHui74ixi-35" target="GiZt8iYAm0HKHui74ixi-39">
          <mxGeometry relative="1" as="geometry" />
        </mxCell>
        <mxCell id="GiZt8iYAm0HKHui74ixi-42" style="edgeStyle=none;rounded=1;jumpSize=6;orthogonalLoop=1;jettySize=auto;html=1;exitX=1;exitY=0.5;exitDx=0;exitDy=0;entryX=-0.17;entryY=0.476;entryDx=0;entryDy=0;entryPerimeter=0;strokeColor=default;strokeWidth=0.5;fontSize=4;fontColor=default;startSize=3;endSize=3;opacity=80;" edge="1" parent="1" source="GiZt8iYAm0HKHui74ixi-35" target="GiZt8iYAm0HKHui74ixi-37">
          <mxGeometry relative="1" as="geometry" />
        </mxCell>
        <mxCell id="GiZt8iYAm0HKHui74ixi-35" value="Deploy" style="shape=image;html=1;verticalAlign=top;verticalLabelPosition=bottom;labelBackgroundColor=none;imageAspect=0;aspect=fixed;image=https://cdn0.iconfinder.com/data/icons/business-startup-10/50/4-128.png;rounded=1;shadow=0;glass=0;labelBorderColor=none;sketch=0;strokeColor=default;strokeWidth=1;fontSize=4;fontColor=default;fillColor=none;" vertex="1" parent="1">
          <mxGeometry x="503.28999999999996" y="115" width="19" height="19" as="geometry" />
        </mxCell>
        <mxCell id="GiZt8iYAm0HKHui74ixi-37" value="Canary&lt;br&gt;(Test A/B)" style="shape=image;html=1;verticalAlign=top;verticalLabelPosition=bottom;labelBackgroundColor=none;imageAspect=0;aspect=fixed;image=https://cdn1.iconfinder.com/data/icons/unicons-line-vol-5/24/rocket-128.png;rounded=1;shadow=0;glass=0;labelBorderColor=none;sketch=0;strokeColor=default;strokeWidth=1;fontSize=4;fontColor=default;fillColor=none;spacing=0;" vertex="1" parent="1">
          <mxGeometry x="563.29" y="133.5" width="15" height="15" as="geometry" />
        </mxCell>
        <mxCell id="GiZt8iYAm0HKHui74ixi-39" value="Red / Black" style="shape=image;html=1;verticalAlign=bottom;verticalLabelPosition=top;labelBackgroundColor=none;imageAspect=0;aspect=fixed;image=https://cdn1.iconfinder.com/data/icons/unicons-line-vol-5/24/rocket-128.png;rounded=1;shadow=0;glass=0;labelBorderColor=none;sketch=0;strokeColor=default;strokeWidth=1;fontSize=4;fontColor=default;fillColor=none;labelPosition=center;align=center;" vertex="1" parent="1">
          <mxGeometry x="563.29" y="100.5" width="15" height="15" as="geometry" />
        </mxCell>
        <mxCell id="GiZt8iYAm0HKHui74ixi-40" value="https://www.youtube.com/watch?v=F_Mp-l8whdE&amp;amp;list=PL5aY_NrL1rjtSE4F6Gls-vB7-XrCsIVk7&amp;amp;index=1&amp;amp;ab_channel=FullCycle" style="text;html=1;align=center;verticalAlign=middle;resizable=0;points=[];autosize=1;strokeColor=none;fillColor=none;fontSize=4;fontColor=default;" vertex="1" parent="1">
          <mxGeometry x="128" width="250" height="20" as="geometry" />
        </mxCell>
        <mxCell id="GiZt8iYAm0HKHui74ixi-43" value="" style="aspect=fixed;perimeter=ellipsePerimeter;html=1;align=center;shadow=0;dashed=0;fontColor=#4277BB;labelBackgroundColor=#ffffff;fontSize=12;spacingTop=3;image;image=img/lib/ibm/devops/continuous_testing.svg;rounded=1;glass=0;labelBorderColor=none;sketch=0;strokeColor=default;strokeWidth=1;fillColor=none;" vertex="1" parent="1">
          <mxGeometry x="223.29" y="114.5" width="20" height="20" as="geometry" />
        </mxCell>
        <mxCell id="GiZt8iYAm0HKHui74ixi-44" value="" style="aspect=fixed;perimeter=ellipsePerimeter;html=1;align=center;shadow=0;dashed=0;fontColor=#4277BB;labelBackgroundColor=#ffffff;fontSize=12;spacingTop=3;image;image=img/lib/ibm/devops/continuous_testing.svg;rounded=1;glass=0;labelBorderColor=none;sketch=0;strokeColor=default;strokeWidth=1;fillColor=none;" vertex="1" parent="1">
          <mxGeometry x="402.28999999999996" y="115" width="20" height="20" as="geometry" />
        </mxCell>
        <mxCell id="GiZt8iYAm0HKHui74ixi-45" value="" style="aspect=fixed;perimeter=ellipsePerimeter;html=1;align=center;shadow=0;dashed=0;fontColor=#4277BB;labelBackgroundColor=#ffffff;fontSize=12;spacingTop=3;image;image=img/lib/ibm/devops/continuous_deploy.svg;rounded=1;glass=0;labelBorderColor=none;sketch=0;strokeColor=default;strokeWidth=1;fillColor=none;" vertex="1" parent="1">
          <mxGeometry x="502.78999999999996" y="114.5" width="20" height="20" as="geometry" />
        </mxCell>
        <mxCell id="GiZt8iYAm0HKHui74ixi-51" value="" style="editableCssRules=.*;shape=image;verticalLabelPosition=bottom;labelBackgroundColor=#ffffff;verticalAlign=top;aspect=fixed;imageAspect=0;image=data:image/svg+xml,PHN2ZyB4bWxucz0iaHR0cDovL3d3dy53My5vcmcvMjAwMC9zdmciIHhtbG5zOnY9Imh0dHBzOi8vdmVjdGEuaW8vbmFubyIgd2lkdGg9IjMyOS45MjU5OTcyMzE3OTM4IiBoZWlnaHQ9IjM3OC4yODQ5OTAzMTEyNzg4IiB2aWV3Qm94PSIwIDAgODcuMjkyOTk5MjY3NTc4MTIgMTAwLjA4Nzk5NzQzNjUyMzQ0Ij4mI3hhOzxzdHlsZSB0eXBlPSJ0ZXh0L2NzcyI+JiN4YTsJLnN0MHtmaWxsOiNhZWNiZmE7fSYjeGE7CS5zdDF7ZmlsbDojNjY5ZGY2O30mI3hhOwkuc3Qye2ZpbGw6IzQyODVmNDt9JiN4YTs8L3N0eWxlPiYjeGE7CTxwYXRoIGNsYXNzPSJzdDAiIGQ9Ik00My43NTEgMEwwIDI1LjQ2NXYyLjU4OCA0Ni45Mmw0My43NTIgMjUuMTE1IDQzLjU0MS0yNS4xMjFWMjUuNDczem0yLjQzOCAxMS44NTNsMzIuMTAzIDE4Ljc4MlY2OS43N0w0My43MzkgODkuNzA1IDkgNjkuNzYyVjMwLjY0MWwzMi4xOS0xOC43MzZ2MTQuMTU0TDI0LjUwMyAzNi4xNTNsMTkuMTcyIDExLjUwMiAxOC44ODYtMTEuNTU0LTE2LjM3Mi0xMC4wMjR6Ii8+JiN4YTsJPHBhdGggY2xhc3M9InN0MSIgZD0iTTIyLjAyNSA0MC40OTZsLjE2NiAxOS4xNDMtMTMuMjQ3IDcuMzN2Mi43NDJsMi42MzcgMS41MTQgMTIuNjQ4LTYuOTk5TDQxLjE5IDc0LjgyOFY1MS45OTN6Ii8+JiN4YTsJPHBhdGggY2xhc3M9InN0MiIgZD0iTTY1LjM0NCA0MC4yNkw0Ni4xODkgNTEuOTc5djIyLjg0N0w2My4wODggNjQuMjVsMTIuNTM5IDYuOTc0IDIuNjA5LTEuNTA1di0yLjc2NWwtMTIuNzg0LTcuMTEyeiIvPiYjeGE7PC9zdmc+;rounded=1;shadow=0;glass=0;labelBorderColor=none;sketch=0;strokeColor=default;strokeWidth=1;fontSize=4;fontColor=default;fillColor=none;" vertex="1" parent="1">
          <mxGeometry x="360" y="40" width="18" height="20" as="geometry" />
        </mxCell>
        <mxCell id="GiZt8iYAm0HKHui74ixi-54" value="" style="outlineConnect=0;dashed=0;verticalLabelPosition=bottom;verticalAlign=top;align=center;html=1;shape=mxgraph.aws3.codedeploy;fillColor=#759C3E;gradientColor=none;rounded=1;shadow=0;glass=0;labelBackgroundColor=none;labelBorderColor=none;sketch=0;strokeColor=default;strokeWidth=1;fontSize=4;fontColor=default;aspect=fixed;" vertex="1" parent="1">
          <mxGeometry x="393.29" y="36.25" width="19.79" height="23.75" as="geometry" />
        </mxCell>
        <mxCell id="GiZt8iYAm0HKHui74ixi-69" style="edgeStyle=orthogonalEdgeStyle;rounded=1;jumpSize=6;orthogonalLoop=1;jettySize=auto;html=1;exitX=0;exitY=0.5;exitDx=0;exitDy=0;exitPerimeter=0;entryX=1;entryY=0.5;entryDx=0;entryDy=0;strokeColor=default;strokeWidth=0.5;fontSize=6;fontColor=#E8E8E8;startSize=3;endSize=3;opacity=80;" edge="1" parent="1" source="GiZt8iYAm0HKHui74ixi-68" target="GiZt8iYAm0HKHui74ixi-56">
          <mxGeometry relative="1" as="geometry" />
        </mxCell>
        <mxCell id="GiZt8iYAm0HKHui74ixi-68" value="Load Balancer" style="outlineConnect=0;dashed=0;verticalLabelPosition=bottom;verticalAlign=top;align=center;html=1;shape=mxgraph.aws3.classic_load_balancer;fillColor=#F58534;gradientColor=none;rounded=1;shadow=0;glass=0;labelBackgroundColor=none;labelBorderColor=none;sketch=0;strokeColor=default;strokeWidth=1;fontSize=6;fontColor=#E8E8E8;aspect=fixed;" vertex="1" parent="1">
          <mxGeometry x="844.12" y="80" width="38.33" height="40" as="geometry" />
        </mxCell>
        <mxCell id="GiZt8iYAm0HKHui74ixi-71" style="edgeStyle=orthogonalEdgeStyle;rounded=1;jumpSize=6;orthogonalLoop=1;jettySize=auto;html=1;entryX=1;entryY=0.5;entryDx=0;entryDy=0;entryPerimeter=0;strokeColor=default;strokeWidth=0.5;fontSize=6;fontColor=#E8E8E8;startSize=3;endSize=3;opacity=80;" edge="1" parent="1" source="GiZt8iYAm0HKHui74ixi-70" target="GiZt8iYAm0HKHui74ixi-68">
          <mxGeometry relative="1" as="geometry" />
        </mxCell>
        <mxCell id="GiZt8iYAm0HKHui74ixi-70" value="API Gateway" style="text;html=1;align=center;verticalAlign=middle;resizable=0;points=[];autosize=1;strokeColor=none;fillColor=none;fontSize=6;fontColor=#E8E8E8;" vertex="1" parent="1">
          <mxGeometry x="940" y="90" width="60" height="20" as="geometry" />
        </mxCell>
        <mxCell id="GiZt8iYAm0HKHui74ixi-72" value="" style="group" vertex="1" connectable="0" parent="1">
          <mxGeometry x="650" y="80" width="140" height="100" as="geometry" />
        </mxCell>
        <mxCell id="GiZt8iYAm0HKHui74ixi-57" value="" style="group" vertex="1" connectable="0" parent="GiZt8iYAm0HKHui74ixi-72">
          <mxGeometry x="90.00000000000001" width="50" height="40" as="geometry" />
        </mxCell>
        <mxCell id="GiZt8iYAm0HKHui74ixi-56" value="Pod" style="rounded=1;whiteSpace=wrap;html=1;fillColor=none;labelPosition=center;verticalLabelPosition=top;align=center;verticalAlign=bottom;fontSize=6;" vertex="1" parent="GiZt8iYAm0HKHui74ixi-57">
          <mxGeometry width="50" height="40" as="geometry" />
        </mxCell>
        <mxCell id="GiZt8iYAm0HKHui74ixi-55" value="Container" style="outlineConnect=0;dashed=0;verticalLabelPosition=bottom;verticalAlign=top;align=center;html=1;shape=mxgraph.aws3.ec2_compute_container;fillColor=#F58534;gradientColor=none;rounded=1;shadow=0;glass=0;labelBackgroundColor=none;labelBorderColor=none;sketch=0;strokeColor=default;strokeWidth=1;fontSize=4;fontColor=default;aspect=fixed;spacing=0;" vertex="1" parent="GiZt8iYAm0HKHui74ixi-57">
          <mxGeometry x="3.3499999999999943" y="5" width="42.61" height="24.5" as="geometry" />
        </mxCell>
        <mxCell id="GiZt8iYAm0HKHui74ixi-58" value="" style="group" vertex="1" connectable="0" parent="GiZt8iYAm0HKHui74ixi-72">
          <mxGeometry x="90.00000000000001" y="60" width="50" height="40" as="geometry" />
        </mxCell>
        <mxCell id="GiZt8iYAm0HKHui74ixi-59" value="Pod" style="rounded=1;whiteSpace=wrap;html=1;fillColor=none;labelPosition=center;verticalLabelPosition=top;align=center;verticalAlign=bottom;fontSize=6;" vertex="1" parent="GiZt8iYAm0HKHui74ixi-58">
          <mxGeometry width="50" height="40" as="geometry" />
        </mxCell>
        <mxCell id="GiZt8iYAm0HKHui74ixi-60" value="Container" style="outlineConnect=0;dashed=0;verticalLabelPosition=bottom;verticalAlign=top;align=center;html=1;shape=mxgraph.aws3.ec2_compute_container;fillColor=#F58534;gradientColor=none;rounded=1;shadow=0;glass=0;labelBackgroundColor=none;labelBorderColor=none;sketch=0;strokeColor=default;strokeWidth=1;fontSize=4;fontColor=default;aspect=fixed;spacing=0;" vertex="1" parent="GiZt8iYAm0HKHui74ixi-58">
          <mxGeometry x="3.3499999999999943" y="5" width="42.61" height="24.5" as="geometry" />
        </mxCell>
        <mxCell id="GiZt8iYAm0HKHui74ixi-61" value="" style="group" vertex="1" connectable="0" parent="GiZt8iYAm0HKHui74ixi-72">
          <mxGeometry y="60" width="50" height="40" as="geometry" />
        </mxCell>
        <mxCell id="GiZt8iYAm0HKHui74ixi-62" value="Pod" style="rounded=1;whiteSpace=wrap;html=1;fillColor=none;labelPosition=center;verticalLabelPosition=top;align=center;verticalAlign=bottom;fontSize=6;" vertex="1" parent="GiZt8iYAm0HKHui74ixi-61">
          <mxGeometry width="50" height="40" as="geometry" />
        </mxCell>
        <mxCell id="GiZt8iYAm0HKHui74ixi-63" value="Container" style="outlineConnect=0;dashed=0;verticalLabelPosition=bottom;verticalAlign=top;align=center;html=1;shape=mxgraph.aws3.ec2_compute_container;fillColor=#F58534;gradientColor=none;rounded=1;shadow=0;glass=0;labelBackgroundColor=none;labelBorderColor=none;sketch=0;strokeColor=default;strokeWidth=1;fontSize=4;fontColor=default;aspect=fixed;spacing=0;" vertex="1" parent="GiZt8iYAm0HKHui74ixi-61">
          <mxGeometry x="3.3499999999999943" y="5" width="42.61" height="24.5" as="geometry" />
        </mxCell>
        <mxCell id="GiZt8iYAm0HKHui74ixi-64" value="" style="group" vertex="1" connectable="0" parent="GiZt8iYAm0HKHui74ixi-72">
          <mxGeometry width="50" height="40" as="geometry" />
        </mxCell>
        <mxCell id="GiZt8iYAm0HKHui74ixi-65" value="Pod" style="rounded=1;whiteSpace=wrap;html=1;fillColor=none;labelPosition=center;verticalLabelPosition=top;align=center;verticalAlign=bottom;fontSize=6;" vertex="1" parent="GiZt8iYAm0HKHui74ixi-64">
          <mxGeometry width="50" height="40" as="geometry" />
        </mxCell>
        <mxCell id="GiZt8iYAm0HKHui74ixi-66" value="Container" style="outlineConnect=0;dashed=0;verticalLabelPosition=bottom;verticalAlign=top;align=center;html=1;shape=mxgraph.aws3.ec2_compute_container;fillColor=#F58534;gradientColor=none;rounded=1;shadow=0;glass=0;labelBackgroundColor=none;labelBorderColor=none;sketch=0;strokeColor=default;strokeWidth=1;fontSize=4;fontColor=default;aspect=fixed;spacing=0;" vertex="1" parent="GiZt8iYAm0HKHui74ixi-64">
          <mxGeometry x="3.3499999999999943" y="5" width="42.61" height="24.5" as="geometry" />
        </mxCell>
        <mxCell id="GiZt8iYAm0HKHui74ixi-67" value="Kubernetes" style="sketch=0;html=1;verticalAlign=top;labelPosition=center;verticalLabelPosition=bottom;align=center;spacingTop=-6;fontSize=6;fontStyle=1;fontColor=#E8E8E8;shape=image;aspect=fixed;imageAspect=0;image=data:image/svg+xml,PHN2ZyB4bWxucz0iaHR0cDovL3d3dy53My5vcmcvMjAwMC9zdmciIHhtbG5zOnY9Imh0dHBzOi8vdmVjdGEuaW8vbmFubyIgd2lkdGg9IjcwMi44NDYzMTM0NzY1NjI1IiBoZWlnaHQ9IjY4MS45NjcxMDIwNTA3ODEyIiB2aWV3Qm94PSIxMC4wMDEwMjYxNTM1NjQ0NTMgMTAuMDAwOTMzNjQ3MTU1NzYyIDcwMi44NDYzMTM0NzY1NjI1IDY4MS45NjcxMDIwNTA3ODEyIj4mI3hhOwk8c3R5bGUgdHlwZT0idGV4dC9jc3MiPiYjeGE7CS5zdDB7ZmlsbDojMzI2Y2U1O30mI3hhOwkuc3Qxe2ZpbGw6I2ZmZjt9JiN4YTsJPC9zdHlsZT4mI3hhOwk8cGF0aCBjbGFzcz0ic3QwIiBkPSJNMzU4Ljk4NyAxMC4wNmMtNi4yMTMuMzEzLTEyLjMwMSAxLjg1NC0xNy45MDYgNC41MzFMOTYuNzM3IDEzMS4zNDJjLTEyLjgxMSA2LjExOC0yMi4xMTYgMTcuNjg5LTI1LjI4MSAzMS40MzhsLTYwLjI4MSAyNjIuMjVjLTIuODEyIDEyLjIwNy0uNTI0IDI1LjAyNCA2LjM0NCAzNS41MzFhNDYuMzUgNDYuMzUgMCAwIDAgMi42NTYgMy42ODhsMTY5LjEyNSAyMTAuMjgxYzguODY4IDExLjAyMiAyMi4zMTMgMTcuNDQgMzYuNTMxIDE3LjQzOGwyNzEuMjE5LS4wNjJjMTQuMjEyLjAxIDI3LjY1Ny02LjM5NiAzNi41MzEtMTcuNDA2bDE2OS4wNjMtMjEwLjMxM2M4Ljg3My0xMS4wMjggMTIuMTk3LTI1LjQ2NCA5LjAzMS0zOS4yMTlsLTYwLjM3NS0yNjIuMjVjLTMuMTY1LTEzLjc0OC0xMi40Ny0yNS4zMTktMjUuMjgxLTMxLjQzN0wzODEuNjQzIDE0LjU5MmMtNy4wNS0zLjM2OC0xNC44NDEtNC45MjYtMjIuNjU2LTQuNTMxeiIvPiYjeGE7CTxwYXRoIGNsYXNzPSJzdDEgc3QyIiBkPSJNMzYxLjQwOCA5OS4zMDhjLTguMDc3LjAwMS0xNC42MjYgNy4yNzYtMTQuNjI1IDE2LjI1IDAgLjEzOC4wMjguMjY5LjAzMS40MDYtLjAxMiAxLjIxOS0uMDcxIDIuNjg4LS4wMzEgMy43NS4xOTMgNS4xNzYgMS4zMjEgOS4xMzcgMiAxMy45MDYgMS4yMyAxMC4yMDcgMi4yNjEgMTguNjY3IDEuNjI1IDI2LjUzMS0uNjE5IDIuOTY1LTIuODAzIDUuNjc3LTQuNzUgNy41NjNsLS4zNDQgNi4xODhjLTguNzc3LjcyNy0xNy42MTIgMi4wNTktMjYuNDM3IDQuMDYzLTM3Ljk3NSA4LjYyMi03MC42NyAyOC4xODMtOTUuNTYyIDU0LjU5NC0xLjYxNS0xLjEwMi00LjQ0MS0zLjEyOS01LjI4MS0zLjc1LTIuNjExLjM1My01LjI1IDEuMTU4LTguNjg3LS44NDQtNi41NDUtNC40MDYtMTIuNTA2LTEwLjQ4Ny0xOS43MTktMTcuODEyLTMuMzA1LTMuNTA0LTUuNjk4LTYuODQxLTkuNjI1LTEwLjIxOS0uODkyLS43NjctMi4yNTMtMS44MDUtMy4yNS0yLjU5NC0zLjA3LTIuNDQ4LTYuNjkxLTMuNzI0LTEwLjE4Ny0zLjg0NC00LjQ5Ni0uMTU0LTguODI0IDEuNjA0LTExLjY1NiA1LjE1Ni01LjAzNSA2LjMxNS0zLjQyMyAxNS45NjggMy41OTQgMjEuNTYzLjA3MS4wNTcuMTQ3LjEwMS4yMTkuMTU2Ljk2NC43ODIgMi4xNDUgMS43ODMgMy4wMzEgMi40MzggNC4xNjcgMy4wNzcgNy45NzMgNC42NTEgMTIuMTI1IDcuMDk0IDguNzQ3IDUuNDAyIDE1Ljk5OCA5Ljg4MSAyMS43NSAxNS4yODEgMi4yNDYgMi4zOTQgMi42MzkgNi42MTMgMi45MzggOC40MzhsNC42ODggNC4xODhjLTI1LjA5MyAzNy43NjQtMzYuNzA3IDg0LjQwOS0yOS44NDQgMTMxLjkzOGwtNi4xMjUgMS43ODFjLTEuNjE0IDIuMDg1LTMuODk1IDUuMzY1LTYuMjgxIDYuMzQ0LTcuNTI1IDIuMzctMTUuOTk0IDMuMjQxLTI2LjIxOSA0LjMxMy00LjguMzk5LTguOTQyLjE2MS0xNC4wMzEgMS4xMjUtMS4xMi4yMTItMi42ODEuNjE5LTMuOTA2LjkwNi0uMDQzLjAwOS0uMDgyLjAyMi0uMTI1LjAzMS0uMDY3LjAxNS0uMTU1LjA0OC0uMjE5LjA2My04LjYyIDIuMDgzLTE0LjE1OCAxMC4wMDYtMTIuMzc1IDE3LjgxM3MxMC4yMDMgMTIuNTU3IDE4Ljg3NSAxMC42ODhjLjA2My0uMDE0LjE1NC0uMDE3LjIxOS0uMDMxLjA5OC0uMDIyLjE4NC0uMDcuMjgxLS4wOTQgMS4yMDktLjI2NSAyLjcyNC0uNTYxIDMuNzgxLS44NDQgNS4wMDMtMS4zNCA4LjYyNy0zLjMwOCAxMy4xMjUtNS4wMzEgOS42NzctMy40NzEgMTcuNjkyLTYuMzcgMjUuNS03LjUgMy4yNjEtLjI1NSA2LjY5NyAyLjAxMiA4LjQwNiAyLjk2OWw2LjM3NS0xLjA5NGMxNC42NyA0NS40ODMgNDUuNDE0IDgyLjI0NSA4NC4zNDQgMTA1LjMxMmwtMi42NTYgNi4zNzVjLjk1NyAyLjQ3NSAyLjAxMyA1LjgyNSAxLjMgOC4yNjktMi44MzkgNy4zNjEtNy43MDEgMTUuMTMxLTEzLjIzOCAyMy43OTMtMi42ODEgNC4wMDItNS40MjUgNy4xMDgtNy44NDQgMTEuNjg4LS41NzkgMS4wOTYtMS4zMTYgMi43NzktMS44NzUgMy45MzgtMy43NTkgOC4wNDItMS4wMDIgMTcuMzA1IDYuMjE5IDIwLjc4MSA3LjI2NiAzLjQ5OCAxNi4yODQtLjE5MSAyMC4xODctOC4yNS4wMDYtLjAxMS4wMjYtLjAyLjAzMS0uMDMxcy0uMDA0LS4wMjMgMC0uMDMxYy41NTYtMS4xNDMgMS4zNDQtMi42NDQgMS44MTMtMy43MTkgMi4wNzItNC43NDcgMi43NjItOC44MTUgNC4yMTktMTMuNDA2IDMuODctOS43MiA1Ljk5Ni0xOS45MTkgMTEuMzIzLTI2LjI3NCAxLjQ1OS0xLjc0IDMuODM3LTIuNDA5IDYuMzAyLTMuMDdsMy4zMTMtNmMzMy45MzggMTMuMDI3IDcxLjkyNyAxNi41MjIgMTA5Ljg3NSA3LjkwNmExODkuNzcgMTg5Ljc3IDAgMCAwIDI1LjA5NC03LjU2MmwzLjEyNSA1LjYyNWMyLjUwNi44MTUgNS4yNCAxLjIzNiA3LjQ2OSA0LjUzMSAzLjk4NSA2LjgwOSA2LjcxMSAxNC44NjQgMTAuMDMxIDI0LjU5NCAxLjQ1NyA0LjU5MSAyLjE3OCA4LjY1OSA0LjI1IDEzLjQwNi40NzIgMS4wODIgMS4yNTYgMi42MDUgMS44MTMgMy43NSAzLjg5NSA4LjA4NSAxMi45NDIgMTEuNzg3IDIwLjIxOSA4LjI4MSA3LjIxOS0zLjQ3OCA5Ljk4LTEyLjc0IDYuMjE5LTIwLjc4MWwtMS45MDYtMy45MzdjLTIuNDE5LTQuNTgtNS4xNjMtNy42NTQtNy44NDQtMTEuNjU2LTUuNTM3LTguNjYyLTEwLjEzLTE1Ljg1OC0xMi45NjktMjMuMjE5LTEuMTg3LTMuNzk3LjItNi4xNTggMS4xMjUtOC42MjUtLjU1NC0uNjM1LTEuNzM5LTQuMjItMi40MzctNS45MDYgNDAuNDU3LTIzLjg4OCA3MC4yOTktNjIuMDIxIDg0LjMxMy0xMDYuMDYyIDEuODkyLjI5NyA1LjE4Mi44NzkgNi4yNSAxLjA5NCAyLjItMS40NTEgNC4yMjItMy4zNDQgOC4xODgtMy4wMzEgNy44MDggMS4xMjkgMTUuODIzIDQuMDMgMjUuNSA3LjUgNC40OTggMS43MjMgOC4xMjIgMy43MjMgMTMuMTI1IDUuMDYzIDEuMDU3LjI4MyAyLjU3Mi41NDcgMy43ODEuODEzLjA5Ny4wMjQuMTgzLjA3MS4yODEuMDk0LjA2NS4wMTUuMTU2LjAxNy4yMTkuMDMxIDguNjcyIDEuODY3IDE3LjA5NC0yLjg3OSAxOC44NzUtMTAuNjg3cy0zLjc1NC0xNS43MzItMTIuMzc1LTE3LjgxMmMtMS4yNTQtLjI4NS0zLjAzMi0uNzY5LTQuMjUtMS01LjA4OS0uOTY0LTkuMjMxLS43MjYtMTQuMDMxLTEuMTI1LTEwLjIyNS0xLjA3MS0xOC42OTMtMS45NDMtMjYuMjE5LTQuMzEyLTMuMDY4LTEuMTktNS4yNTEtNC44NDEtNi4zMTMtNi4zNDRsLTUuOTA2LTEuNzE5YzMuMDYyLTIyLjE1NCAyLjIzNy00NS4yMTEtMy4wNjItNjguMjgxLTUuMzQ4LTIzLjI4NS0xNC44LTQ0LjU4MS0yNy40MDYtNjMuMzQ0bDUuMTg4LTQuNjU2Yy4yMzctMi42MjQuMDMzLTUuMzc2IDIuNzUtOC4yODEgNS43NTEtNS40MDEgMTMuMDAzLTkuODc5IDIxLjc1LTE1LjI4MSA0LjE1Mi0yLjQ0MyA3Ljk5LTQuMDE3IDEyLjE1Ni03LjA5NC45NDItLjY5NiAyLjIyOS0xLjc5OCAzLjIxOS0yLjU5NCA3LjAxNS01LjU5NiA4LjYzMS0xNS4yNDggMy41OTQtMjEuNTYycy0xNC43OTctNi45MDktMjEuODEyLTEuMzEyYy0uOTk5Ljc5MS0yLjM1NCAxLjgyMy0zLjI1IDIuNTk0LTMuOTI3IDMuMzc4LTYuMzUxIDYuNzE0LTkuNjU2IDEwLjIxOS03LjIxMiA3LjMyNi0xMy4xNzQgMTMuNDM4LTE5LjcxOSAxNy44NDQtMi44MzYgMS42NTEtNi45OSAxLjA4LTguODc1Ljk2OWwtNS41NjIgMy45NjljLTMxLjcxOS0zMy4yNjEtNzQuOTA1LTU0LjUyNS0xMjEuNDA2LTU4LjY1NmwtLjM0NC02LjUzMWMtMS45MDQtMS44MjItNC4yMDMtMy4zNzctNC43ODEtNy4zMTItLjYzNi03Ljg2NC40MjYtMTYuMzI1IDEuNjU2LTI2LjUzMS42NzktNC43NjkgMS44MDctOC43MyAyLTEzLjkwNi4wNDQtMS4xNzctLjAyNi0yLjg4NC0uMDMxLTQuMTU2LS4wMDEtOC45NzQtNi41NDgtMTYuMjUxLTE0LjYyNS0xNi4yNXptLTE4LjMxMiAxMTMuNDM4bC00LjM0NCA3Ni43MTktLjMxMi4xNTZjLS4yOTEgNi44NjMtNS45NCAxMi4zNDQtMTIuODc1IDEyLjM0NGExMi44MiAxMi44MiAwIDAgMS03LjU5NC0yLjQ2OWwtLjEyNS4wNjMtNjIuOTA2LTQ0LjU5NGMxOS4zMzQtMTkuMDExIDQ0LjA2My0zMy4wNiA3Mi41NjItMzkuNTMxIDUuMjA2LTEuMTgyIDEwLjQxLTIuMDU5IDE1LjU5NC0yLjY4N3ptMzYuNjU2IDBjMzMuMjczIDQuMDkyIDY0LjA0NSAxOS4xNTkgODcuNjI1IDQyLjI1bC02Mi41IDQ0LjMxMy0uMjE5LS4wOTRhMTIuOTEgMTIuOTEgMCAwIDEtMTcuNjg3LTIuMzc1Yy0xLjc3MS0yLjIyMS0yLjcwMS00LjgzMi0yLjgxMi03LjQ2OWwtLjA2Mi0uMDMxek0yMzIuMTI2IDI4My42Mmw1Ny40MzcgNTEuMzc1LS4wNjIuMzEzYTEyLjg4IDEyLjg4IDAgMCAxIDEuNjI1IDE3Ljc1IDEyLjg5IDEyLjg5IDAgMCAxLTYuNjg3IDQuNDA2bC0uMDYyLjI1LTczLjYyNSAyMS4yNWMtMy43NDctMzQuMjY1IDQuMzI5LTY3LjU3NCAyMS4zNzUtOTUuMzQ0em0yNTguMTU2LjAzMWM4LjUzNCAxMy44MzMgMTQuOTk3IDI5LjI4MiAxOC44NDQgNDYuMDMxIDMuODAxIDE2LjU0OCA0Ljc1NSAzMy4wNjcgMy4xODggNDkuMDMxbC03NC0yMS4zMTItLjA2Mi0uMzEyYy02LjYyNy0xLjgxMS0xMC42OTktOC41NTItOS4xNTYtMTUuMzEyLjYzMi0yLjc3IDIuMTAyLTUuMTEzIDQuMDk0LTYuODQ0bC0uMDMxLS4xNTYgNTcuMTI1LTUxLjEyNXptLTE0MC42NTYgNTUuMzEzaDIzLjUzMWwxNC42MjUgMTguMjgxLTUuMjUgMjIuODEzLTIxLjEyNSAxMC4xNTYtMjEuMTg3LTEwLjE4Ny01LjI1LTIyLjgxMnptNzUuNDM4IDYyLjU2M2ExMi44MyAxMi44MyAwIDAgMSAyLjk2OS4yMTlsLjEyNS0uMTU2IDc2LjE1NiAxMi44NzVjLTExLjE0NiAzMS4zMTMtMzIuNDczIDU4LjQ0LTYwLjk2OSA3Ni41OTRsLTI5LjU2Mi03MS40MDYuMDk0LS4xMjVjLTIuNzE2LTYuMzEuMDAyLTEzLjcxIDYuMjUtMTYuNzE5IDEuNi0uNzcgMy4yNzEtMS4xOTcgNC45MzgtMS4yODF6bS0xMjcuOTA2LjMxM2ExMi45IDEyLjkgMCAwIDEgMTIuMzc1IDEwLjAzMSAxMi43NyAxMi43NyAwIDAgMS0uNzE5IDcuOTM4bC4yMTkuMjgxLTI5LjI1IDcwLjY4OGMtMjcuMzQ3LTE3LjU0OS00OS4xMjktNDMuODI0LTYwLjc4MS03Ni4wNjJsNzUuNS0xMi44MTIuMTI1LjE1NmMuODQ1LS4xNTUgMS43MDEtLjIzIDIuNTMxLS4yMTl6bTYzLjc4MSAzMC45NjljMi4wMjQtLjA3NCA0LjA3OS4zNDEgNi4wMzEgMS4yODEgMi41NiAxLjIzMyA0LjUzNyAzLjE3MyA1Ljc4MSA1LjVoLjI4MWwzNy4yMTkgNjcuMjVjLTQuODMgMS42MTktOS43OTYgMy4wMDMtMTQuODc1IDQuMTU2LTI4LjQ2NSA2LjQ2My01Ni44MzkgNC41MDUtODIuNTMxLTQuMjVsMzcuMTI1LTY3LjEyNWguMDYzYTEyLjkxIDEyLjkxIDAgMCAxIDEwLjkwNi02LjgxMnoiIHN0cm9rZT0ibm9uZSIgc3Ryb2tlLXdpZHRoPSIuMjUiLz4mI3hhOzwvc3ZnPg==;rounded=1;shadow=0;glass=0;labelBackgroundColor=none;labelBorderColor=none;strokeColor=default;strokeWidth=1;fillColor=none;" vertex="1" parent="GiZt8iYAm0HKHui74ixi-72">
          <mxGeometry x="48.000000000000014" y="30" width="42" height="40" as="geometry" />
        </mxCell>
        <mxCell id="GiZt8iYAm0HKHui74ixi-76" style="edgeStyle=orthogonalEdgeStyle;rounded=1;jumpSize=6;orthogonalLoop=1;jettySize=auto;html=1;entryX=-0.027;entryY=0.511;entryDx=0;entryDy=0;entryPerimeter=0;strokeColor=default;strokeWidth=0.5;fontSize=6;fontColor=#E8E8E8;startSize=3;endSize=3;opacity=80;" edge="1" parent="1" source="GiZt8iYAm0HKHui74ixi-73" target="GiZt8iYAm0HKHui74ixi-74">
          <mxGeometry relative="1" as="geometry" />
        </mxCell>
        <mxCell id="GiZt8iYAm0HKHui74ixi-73" value="Elastic" style="text;html=1;align=center;verticalAlign=middle;resizable=0;points=[];autosize=1;strokeColor=none;fillColor=none;fontSize=6;fontColor=#E8E8E8;" vertex="1" parent="1">
          <mxGeometry x="843.28" y="20" width="40" height="20" as="geometry" />
        </mxCell>
        <mxCell id="GiZt8iYAm0HKHui74ixi-74" value="Kibana" style="text;html=1;align=center;verticalAlign=middle;resizable=0;points=[];autosize=1;strokeColor=none;fillColor=none;fontSize=6;fontColor=#E8E8E8;" vertex="1" parent="1">
          <mxGeometry x="944.29" y="20" width="40" height="20" as="geometry" />
        </mxCell>
        <mxCell id="GiZt8iYAm0HKHui74ixi-75" style="edgeStyle=orthogonalEdgeStyle;rounded=1;jumpSize=6;orthogonalLoop=1;jettySize=auto;html=1;exitX=0.5;exitY=0;exitDx=0;exitDy=0;entryX=-0.012;entryY=0.424;entryDx=0;entryDy=0;entryPerimeter=0;strokeColor=default;strokeWidth=0.5;fontSize=6;fontColor=#E8E8E8;startSize=3;endSize=3;opacity=80;" edge="1" parent="1" source="GiZt8iYAm0HKHui74ixi-67" target="GiZt8iYAm0HKHui74ixi-73">
          <mxGeometry relative="1" as="geometry" />
        </mxCell>
        <mxCell id="GiZt8iYAm0HKHui74ixi-84" style="edgeStyle=orthogonalEdgeStyle;rounded=1;jumpSize=6;orthogonalLoop=1;jettySize=auto;html=1;entryX=0;entryY=0.5;entryDx=0;entryDy=0;strokeColor=default;strokeWidth=0.5;fontSize=6;fontColor=#E8E8E8;startSize=3;endSize=3;opacity=80;exitX=0.514;exitY=0;exitDx=0;exitDy=0;exitPerimeter=0;" edge="1" parent="1" source="GiZt8iYAm0HKHui74ixi-80" target="GiZt8iYAm0HKHui74ixi-28">
          <mxGeometry relative="1" as="geometry" />
        </mxCell>
        <mxCell id="GiZt8iYAm0HKHui74ixi-80" value="Image - Registry" style="text;html=1;align=center;verticalAlign=middle;resizable=0;points=[];autosize=1;strokeColor=none;fillColor=none;fontSize=6;fontColor=#E8E8E8;" vertex="1" parent="1">
          <mxGeometry x="334" y="190" width="70" height="20" as="geometry" />
        </mxCell>
      </root>
    </mxGraphModel>
  </diagram>
</mxfile>
